<?xml version="1.0" standalone="no"?>
<!DOCTYPE svg PUBLIC "-//W3C//DTD SVG 20010904//EN"
 "http://www.w3.org/TR/2001/REC-SVG-20010904/DTD/svg10.dtd">
<svg version="1.0" xmlns="http://www.w3.org/2000/svg"
 width="512.000000pt" height="512.000000pt" viewBox="0 0 512.000000 512.000000"
 preserveAspectRatio="xMidYMid meet">
<metadata>
Created by potrace 1.11, written by Peter Selinger 2001-2013
</metadata>
<g transform="translate(0.000000,512.000000) scale(0.100000,-0.100000)"
fill="#000000" stroke="none">
<path d="M2867 4826 c-59 -22 -103 -61 -131 -118 l-26 -52 0 -978 0 -978 940
0 c924 0 940 0 994 21 68 25 128 89 146 155 14 51 8 312 -10 439 -36 249 -137
512 -278 725 -274 414 -706 695 -1192 776 -129 22 -396 28 -443 10z"/>
<path d="M508 2410 c-81 -24 -139 -80 -166 -159 -14 -41 -15 -241 -2 -371 14
-135 36 -237 81 -375 165 -502 550 -910 1044 -1105 199 -79 470 -126 682 -119
96 4 113 7 155 32 52 30 89 74 107 126 8 24 11 306 11 1007 l0 974 -942 -1
c-519 0 -955 -4 -970 -9z"/>
<path d="M2712 1432 l3 -989 30 -48 c18 -30 49 -60 78 -78 41 -25 62 -30 135
-34 109 -7 304 11 430 38 468 101 865 378 1135 791 121 184 218 448 259 698 6
41 12 156 12 255 1 167 -1 183 -21 222 -12 22 -39 55 -60 72 -76 63 -44 61
-1070 61 l-933 0 2 -988z"/>
</g>
</svg>
