<?xml version="1.0" standalone="no"?>
<!DOCTYPE svg PUBLIC "-//W3C//DTD SVG 20010904//EN"
 "http://www.w3.org/TR/2001/REC-SVG-20010904/DTD/svg10.dtd">
<svg version="1.0" xmlns="http://www.w3.org/2000/svg"
 width="512.000000pt" height="512.000000pt" viewBox="0 0 512.000000 512.000000"
 preserveAspectRatio="xMidYMid meet">
<metadata>
Created by potrace 1.11, written by Peter Selinger 2001-2013
</metadata>
<g transform="translate(0.000000,512.000000) scale(0.100000,-0.100000)"
fill="#000000" stroke="none">
<path d="M2365 4954 c-59 -6 -196 -24 -230 -29 -16 -3 -39 -7 -50 -8 -11 -2
-27 -6 -35 -9 -15 -6 -129 -35 -160 -41 -8 -2 -28 -9 -43 -15 -16 -7 -49 -17
-73 -23 -24 -6 -47 -15 -50 -20 -3 -5 -16 -9 -30 -9 -13 0 -24 -4 -24 -10 0
-5 -7 -10 -15 -10 -15 0 -181 -78 -271 -127 -102 -56 -282 -185 -394 -281
-184 -159 -302 -293 -433 -493 -213 -325 -336 -657 -384 -1044 -21 -175 -11
-508 22 -690 28 -157 107 -415 171 -558 218 -489 606 -902 1084 -1155 115 -61
243 -116 254 -109 1 1 9 -3 17 -9 8 -7 41 -19 74 -29 33 -9 65 -20 70 -25 6
-4 46 -15 90 -25 44 -9 87 -19 95 -22 8 -4 24 -8 35 -9 11 -2 34 -6 50 -8 17
-3 66 -11 110 -17 49 -8 174 -13 320 -12 210 0 288 5 408 28 15 3 39 7 55 10
15 3 38 7 52 9 14 3 50 12 80 21 30 9 62 18 70 20 8 2 17 4 20 6 3 1 10 3 15
4 6 1 19 6 30 10 11 4 61 23 110 42 124 47 274 120 385 187 51 31 95 56 97 56
3 0 11 7 20 15 8 9 41 33 72 54 71 48 215 175 304 266 326 334 565 802 642
1255 2 14 10 57 16 95 16 94 16 508 0 610 -19 124 -20 126 -35 200 -71 345
-247 718 -475 1003 -77 97 -252 274 -364 367 -83 69 -237 174 -339 230 -70 39
-225 115 -234 115 -3 0 -22 7 -42 16 -62 27 -75 32 -117 45 -22 6 -45 16 -51
21 -7 5 -16 8 -20 7 -5 -1 -11 0 -14 1 -8 3 -32 9 -100 26 -36 9 -72 19 -80
22 -8 3 -24 7 -35 9 -11 1 -63 9 -115 18 -92 14 -474 27 -555 19z m75 -903 l0
-779 -37 -7 c-56 -10 -175 -62 -241 -104 -146 -95 -278 -285 -307 -443 l-7
-38 -785 0 -784 0 5 43 c3 23 8 69 11 102 10 89 51 288 80 385 252 839 965
1462 1831 1599 65 10 145 19 177 20 l57 1 0 -779z m225 -976 c39 -8 97 -28
130 -44 68 -34 168 -124 209 -190 38 -59 73 -165 81 -243 5 -56 2 -83 -21
-188 -21 -98 -136 -246 -235 -303 -122 -70 -248 -86 -414 -52 -66 13 -161 70
-226 136 -208 211 -208 530 1 739 81 81 154 121 265 145 80 18 126 18 210 0z"/>
</g>
</svg>
