<?xml version="1.0" standalone="no"?>
<!DOCTYPE svg PUBLIC "-//W3C//DTD SVG 20010904//EN"
 "http://www.w3.org/TR/2001/REC-SVG-20010904/DTD/svg10.dtd">
<svg version="1.0" xmlns="http://www.w3.org/2000/svg"
 width="512.000000pt" height="512.000000pt" viewBox="0 0 512.000000 512.000000"
 preserveAspectRatio="xMidYMid meet">
<metadata>
Created by potrace 1.11, written by Peter Selinger 2001-2013
</metadata>
<g transform="translate(0.000000,512.000000) scale(0.100000,-0.100000)"
fill="#000000" stroke="none">
<path d="M2698 4852 c-17 -3 -18 -49 -18 -786 l0 -783 74 -21 c246 -72 425
-250 502 -499 l25 -83 785 0 784 0 0 49 c0 65 -16 182 -42 306 -118 567 -450
1070 -933 1411 -235 166 -525 295 -811 359 -113 25 -334 54 -366 47z"/>
<path d="M265 2373 c37 -381 146 -713 333 -1020 291 -475 780 -849 1312 -1002
163 -47 263 -65 468 -86 l62 -6 0 790 0 790 -42 12 c-125 33 -217 79 -302 150
-122 102 -198 225 -245 397 l-12 42 -790 0 -791 0 7 -67z"/>
<path d="M3265 2373 c-72 -255 -263 -446 -520 -519 l-65 -19 0 -782 0 -783 51
0 c134 0 528 85 644 139 11 5 58 26 105 47 171 75 358 186 504 302 100 79 320
301 399 404 256 331 438 794 464 1180 l6 98 -784 0 -784 0 -20 -67z"/>
</g>
</svg>
